### 在 Ubuntu 上安装 Sox

1. 打开终端并运行以下命令安装 Sox 和相关插件：

   ```bash
   sudo apt update
   sudo apt install sox libsox-fmt-all
   ```

   - `sox` 是主要的音频工具。
   - `libsox-fmt-all` 安装所有常用的音频格式支持（如 MP3、FLAC 等）。

2. 验证安装：
   ```bash
   sox --version
   ```

   如果正确安装，您会看到类似以下输出：
   ```
   SoX v14.4.2
   ```

---

### 使用 Sox 查看音频信息（采样率、位深等）

1. 运行以下命令查看音频文件信息：
   ```bash
   sox --i <音频文件路径>
   ```
   示例：
   ```bash
   sox --i example.wav
   ```

   输出示例：
   ```
   Input File     : 'example.wav'
   Channels       : 2
   Sample Rate    : 44100
   Precision      : 16-bit
   Duration       : 00:01:30.12 = 3965280 samples ~ 6739.62 CDDA sectors
   File Size      : 15.9M
   Bit Rate       : 1.41M
   Sample Encoding: 16-bit Signed Integer PCM
   ```

   关键字段解释：
   - **Sample Rate**：采样率（单位 Hz，例如 44100 表示 44.1kHz）。
   - **Precision**：位深（如 16-bit）。
   - **Sample Encoding**：样本编码格式。

2. 如果需要更简洁的信息，可以用 `grep` 过滤：
   ```bash
   sox --i example.wav | grep -E "Sample Rate|Precision"
   ```

   示例输出：
   ```
   Sample Rate    : 44100
   Precision      : 16-bit
   ```

---

### 其他常用命令

- **列出支持的格式**：
  ```bash
  sox --help
  ```

- **转换音频采样率或位深**：
  将音频转换为 16kHz、16-bit：
  ```bash
  sox input.wav -r 16000 -b 16 output.wav
  ```
  参数说明：
  - `-r 16000`：设置采样率为 16kHz。
  - `-b 16`：设置位深为 16-bit。

- **播放音频文件**（可选）：
  ```bash
  play example.wav
  ```